<svg width="24" height="24" viewBox="0 0 24 24" fill="none" xmlns="http://www.w3.org/2000/svg" data-reactroot="">
<path stroke-linejoin="round" stroke-linecap="round" stroke-miterlimit="10" stroke-width="1" stroke="#ffffff" fill="none" d="M12 22C17.5228 22 22 17.5228 22 12C22 6.47715 17.5228 2 12 2C6.47715 2 2 6.47715 2 12C2 17.5228 6.47715 22 12 22Z"></path>
<path stroke-linejoin="round" stroke-linecap="round" stroke-miterlimit="10" stroke-width="1" stroke="#ffffff" d="M8.29999 16.2C8.79999 16.9 9.49999 17.4 10.5 17.4H12.8C14.4 17.4 15.7 16.1 15.7 14.5C15.7 12.8 14.4 11.5 12.7 11.5H11C9.59999 11.5 8.49999 10.4 8.49999 9C8.49999 7.6 9.59999 6.5 11 6.5H13C14.1 6.5 14.9 7 15.3 8"></path>
<path stroke-linejoin="round" stroke-linecap="round" stroke-miterlimit="10" stroke-width="1" stroke="#ffffff" d="M12 4.5V19.5"></path>
</svg>
