<?xml version="1.0" encoding="UTF-8" standalone="no"?>
<!DOCTYPE svg PUBLIC "-//W3C//DTD SVG 1.1//EN" "http://www.w3.org/Graphics/SVG/1.1/DTD/svg11.dtd">
<svg width="100%" height="100%" viewBox="0 0 175 44" version="1.1" xmlns="http://www.w3.org/2000/svg" xmlns:xlink="http://www.w3.org/1999/xlink" xml:space="preserve" xmlns:serif="http://www.serif.com/" style="fill-rule:evenodd;clip-rule:evenodd;stroke-linejoin:round;stroke-miterlimit:2;">
    <g>
        <rect x="83.23" y="0" width="0.4" height="43.28" style="fill:white;fill-rule:nonzero;"/>
    </g>
    <path d="M96.02,17.14L99.48,17.14L99.48,15.92L96.02,15.92L96.02,12.98L99.75,12.98L99.75,11.77L94.65,11.77L94.65,21.52L99.83,21.52L99.83,20.31L96.02,20.31L96.02,17.14Z" style="fill:white;fill-rule:nonzero;"/>
    <path d="M107.35,19.78L103.71,11.77L101.86,11.77L101.86,21.52L103.1,21.52L103.1,13.41L106.79,21.52L108.59,21.52L108.59,11.77L107.35,11.77L107.35,19.78Z" style="fill:white;fill-rule:nonzero;"/>
    <path d="M113.65,11.57C111.65,11.57 110.55,12.71 110.55,14.78L110.55,17.93C110.55,20.55 111.55,21.72 113.65,21.72C114.696,21.743 115.731,21.491 116.65,20.99L116.65,16.19L113.51,16.19L113.51,17.4L115.28,17.4L115.28,20.16C114.782,20.444 114.213,20.579 113.64,20.55C112.64,20.55 111.95,20.12 111.95,17.99L111.95,14.74C111.95,13 113.01,12.74 113.64,12.74C114.77,12.74 115.27,13.25 115.27,14.41L115.27,14.49L116.69,14.49L116.69,14.42C116.79,13.667 116.572,12.906 116.09,12.32C115.411,11.744 114.525,11.473 113.64,11.57L113.65,11.57Z" style="fill:white;fill-rule:nonzero;"/>
    <rect x="119.37" y="11.77" width="1.38" height="9.75" style="fill:white;fill-rule:nonzero;"/>
    <path d="M129,19.78L125.36,11.77L123.51,11.77L123.51,21.52L124.75,21.52L124.75,13.41L128.44,21.52L130.24,21.52L130.24,11.77L129,11.77L129,19.78Z" style="fill:white;fill-rule:nonzero;"/>
    <path d="M134.1,17.14L137.56,17.14L137.56,15.92L134.1,15.92L134.1,12.98L137.82,12.98L137.82,11.77L132.72,11.77L132.72,21.52L137.9,21.52L137.9,20.31L134.1,20.31L134.1,17.14Z" style="fill:white;fill-rule:nonzero;"/>
    <path d="M141.24,17.14L144.7,17.14L144.7,15.92L141.24,15.92L141.24,12.98L144.97,12.98L144.97,11.77L139.87,11.77L139.87,21.52L145.05,21.52L145.05,20.31L141.24,20.31L141.24,17.14Z" style="fill:white;fill-rule:nonzero;"/>
    <path d="M148.35,13L150.13,13C150.131,13 150.131,13 150.132,13C150.801,13 151.352,13.551 151.352,14.22C151.352,14.277 151.348,14.334 151.34,14.39C151.34,15.09 151.02,15.91 150.11,15.91L148.35,15.91L148.35,13ZM152.56,18.95C152.5,17.17 152.15,16.67 151.21,16.46C152.165,16.171 152.801,15.256 152.74,14.26C152.748,14.182 152.752,14.103 152.752,14.025C152.752,12.796 151.741,11.785 150.512,11.785C150.462,11.785 150.411,11.787 150.36,11.79L147,11.79L147,21.55L148.38,21.55L148.38,17.11L149.74,17.11C149.8,17.101 149.86,17.096 149.921,17.096C150.565,17.096 151.1,17.616 151.12,18.26C151.12,18.63 151.12,19 151.18,19.35C151.149,20.074 151.257,20.797 151.5,21.48L152.93,21.48L152.93,21.38C152.748,20.558 152.637,19.721 152.6,18.88L152.56,18.95Z" style="fill:white;fill-rule:nonzero;"/>
    <rect x="155.06" y="11.77" width="1.37" height="9.75" style="fill:white;fill-rule:nonzero;"/>
    <g>
        <path d="M164.69,19.78L161.04,11.77L159.19,11.77L159.19,21.52L160.43,21.52L160.43,13.41L164.13,21.52L165.93,21.52L165.93,11.77L164.69,11.77L164.69,19.78Z" style="fill:white;fill-rule:nonzero;"/>
        <path d="M171.11,11.57C169.11,11.57 168.01,12.71 168.01,14.78L168.01,17.93C168.01,20.55 169.01,21.72 171.11,21.72C172.156,21.743 173.191,21.491 174.11,20.99L174.11,16.19L171,16.19L171,17.4L172.77,17.4L172.77,20.16C172.272,20.444 171.703,20.579 171.13,20.55C170.13,20.55 169.44,20.12 169.44,17.99L169.44,14.74C169.44,13 170.5,12.74 171.13,12.74C172.26,12.74 172.76,13.25 172.76,14.41L172.76,14.49L174.18,14.49L174.18,14.42C174.281,13.667 174.063,12.906 173.58,12.32C172.901,11.744 172.015,11.473 171.13,11.57L171.11,11.57Z" style="fill:white;fill-rule:nonzero;"/>
    </g>
    <path d="M13.93,15L13.87,15C13.638,15.036 13.403,14.949 13.25,14.77C13.095,14.338 13.034,13.878 13.07,13.42L13.07,4.55C13.02,4.145 13.065,3.735 13.2,3.35C13.3,3.21 13.56,3.22 13.77,3.23L13.91,3.23C14.43,3.23 14.48,2.9 14.48,2.75C14.486,2.642 14.446,2.537 14.37,2.46C14.238,2.371 14.074,2.341 13.92,2.38L11.76,2.38C11.491,2.332 11.225,2.49 11.14,2.75L7.44,12.27L4.18,3.11L4.18,2.96C4.1,2.68 4.02,2.39 3.62,2.39L1.32,2.39C1.166,2.351 1.002,2.381 0.87,2.47C0.794,2.547 0.754,2.652 0.76,2.76C0.76,2.9 0.82,3.24 1.34,3.24C1.86,3.24 2.02,3.24 2.13,3.38C2.24,3.52 2.25,3.78 2.21,4.33L1.63,13.55C1.57,14.65 1.51,15.03 0.63,15.03C0.1,15.03 0.02,15.28 0.02,15.43C0.02,15.58 0.09,15.81 0.45,15.81L3.77,15.81C4.05,15.81 4.31,15.81 4.31,15.43C4.313,15.333 4.277,15.24 4.21,15.17C4.041,15.035 3.825,14.973 3.61,15C3.313,15.025 3.018,14.923 2.8,14.72C2.45,14.35 2.46,13.63 2.52,12.72L3,4.54L6.55,14.82C6.55,14.99 6.67,15.31 6.95,15.31C7.23,15.31 7.27,15.06 7.33,14.9L7.33,14.84L11.33,4.29L11.33,13.47C11.33,13.83 11.33,14.47 11.09,14.74C10.865,14.909 10.591,15.001 10.31,15L10.25,15C10.06,14.973 9.867,15.019 9.71,15.13C9.638,15.201 9.598,15.299 9.6,15.4C9.6,15.57 9.68,15.78 10.08,15.78L14.08,15.78C14.38,15.78 14.56,15.57 14.56,15.4C14.562,15.299 14.522,15.201 14.45,15.13C14.293,15.019 14.1,14.973 13.91,15L13.93,15Z" style="fill:white;fill-rule:nonzero;"/>
    <path d="M18.58,16.06C19.654,16.084 20.7,15.706 21.51,15C22.07,14.47 22.14,14.25 22.14,14.13C22.146,13.974 22.025,13.841 21.87,13.83C21.74,13.83 21.63,13.95 21.52,14.09C20.965,14.684 20.183,15.015 19.37,15C17.19,15 15.84,12.75 15.84,10.67C15.824,9.394 16.317,8.162 17.21,7.25C17.695,6.774 18.325,6.471 19,6.39C19.9,6.39 20.38,7.24 20.76,7.92C21.03,8.4 21.24,8.78 21.56,8.78C21.644,8.779 21.724,8.743 21.78,8.68C21.94,8.373 21.992,8.021 21.93,7.68C21.868,7.339 21.93,7.59 21.93,7.57L21.93,7.39C21.93,7.09 21.93,6.72 21.71,6.52C20.973,6.037 20.111,5.78 19.23,5.78C16.352,5.861 14.029,8.251 14.03,11.13C13.922,13.726 15.937,15.965 18.53,16.13L18.58,16.06Z" style="fill:white;fill-rule:nonzero;"/>
    <path d="M33.46,13.37L33.46,13.48C33.46,13.84 33.46,14.48 33.22,14.75C32.995,14.919 32.721,15.011 32.44,15.01L32.38,15.01C32.19,14.983 31.997,15.029 31.84,15.14C31.768,15.211 31.728,15.309 31.73,15.41C31.73,15.58 31.81,15.79 32.21,15.79L36.21,15.79C36.51,15.79 36.69,15.58 36.69,15.41C36.692,15.309 36.652,15.211 36.58,15.14C36.414,15.015 36.204,14.964 36,15C35.768,15.036 35.533,14.949 35.38,14.77C35.225,14.338 35.163,13.878 35.2,13.42L35.2,4.55C35.15,4.145 35.195,3.735 35.33,3.35C35.43,3.21 35.69,3.22 35.9,3.23L36,3.23C36.52,3.23 36.58,2.9 36.58,2.75C36.586,2.642 36.546,2.537 36.47,2.46C36.333,2.365 36.161,2.335 36,2.38L33.87,2.38C33.601,2.332 33.335,2.49 33.25,2.75L29.56,12.27L26.3,3.11L26.3,2.96C26.22,2.68 26.14,2.39 25.74,2.39L23.43,2.39C23.276,2.351 23.112,2.381 22.98,2.47C22.904,2.547 22.864,2.652 22.87,2.76C22.87,2.9 22.93,3.24 23.45,3.24C23.97,3.24 24.13,3.24 24.24,3.38C24.35,3.52 24.36,3.78 24.32,4.33L23.75,13.55C23.69,14.65 23.63,15.03 22.75,15.03C22.22,15.03 22.14,15.28 22.14,15.43C22.14,15.58 22.21,15.81 22.57,15.81L25.89,15.81C26.17,15.81 26.43,15.81 26.43,15.43C26.433,15.333 26.397,15.24 26.33,15.17C26.165,15.053 25.961,15.003 25.76,15.03C25.463,15.055 25.168,14.953 24.95,14.75C24.6,14.38 24.62,13.66 24.67,12.75L25.19,4.53L28.74,14.81C28.74,14.98 28.86,15.3 29.14,15.3C29.42,15.3 29.46,15.05 29.52,14.89L29.52,14.83L33.52,4.28L33.52,13.35L33.46,13.37Z" style="fill:white;fill-rule:nonzero;"/>
    <path d="M41,10.3L40.24,10.69L41,10.3Z" style="fill:white;fill-rule:nonzero;"/>
    <path d="M41.7,11.09L41.7,12.45C41.788,13.009 41.619,13.579 41.24,14C40.798,14.502 40.168,14.799 39.5,14.82C39.463,14.824 39.426,14.825 39.389,14.825C38.775,14.825 38.269,14.32 38.269,13.705C38.269,13.694 38.27,13.682 38.27,13.67C38.27,12.67 38.98,12.18 39.74,11.75L41.53,10.75L41.67,10.75C41.698,10.885 41.698,11.025 41.67,11.16L41.7,11.09ZM44.7,14.21C44.58,14.21 44.49,14.31 44.38,14.42C44.249,14.604 44.045,14.724 43.82,14.75C43.722,14.751 43.627,14.712 43.56,14.64C43.26,14.34 43.27,13.53 43.27,13.18L43.27,7.81C43.357,7.287 43.198,6.751 42.84,6.36C42.332,5.921 41.67,5.701 41,5.75C39.648,5.787 38.36,6.338 37.4,7.29C36.924,7.709 36.621,8.29 36.55,8.92C36.547,8.937 36.546,8.955 36.546,8.973C36.546,9.159 36.699,9.313 36.886,9.313C36.901,9.313 36.915,9.312 36.93,9.31C37.241,9.267 37.54,9.161 37.81,9C38.089,8.832 38.293,8.564 38.38,8.25L38.38,8.15C38.89,6.91 39.51,6.41 40.53,6.41C41.55,6.41 41.66,7.1 41.66,8.23L41.66,9.23C41.66,9.99 41.66,9.99 41,10.33L39.48,11.11L39.35,11.18C38.22,11.79 36.52,12.7 36.52,14.26C36.528,15.275 37.365,16.105 38.38,16.105C38.427,16.105 38.473,16.104 38.52,16.1C39.64,15.994 40.685,15.486 41.46,14.67L41.68,14.48L41.73,14.48C41.789,14.582 41.84,14.689 41.88,14.8C42.07,15.27 42.35,15.97 43.06,15.97C43.611,15.914 44.13,15.683 44.54,15.31C44.71,15.15 45.03,14.85 45.03,14.56C45.036,14.404 44.915,14.271 44.76,14.26L44.7,14.21Z" style="fill:white;fill-rule:nonzero;"/>
    <path d="M49.23,9.69C48.12,9.27 47.17,8.91 47.17,7.84C47.253,6.986 47.993,6.335 48.85,6.36C49.755,6.311 50.57,6.933 50.76,7.82C50.89,8.15 50.99,8.41 51.24,8.41C51.32,8.411 51.396,8.378 51.45,8.32C51.62,8.13 51.6,7.7 51.57,7.32L51.57,7.02C51.57,6.7 51.57,6.31 51.27,6.13C50.604,5.898 49.905,5.773 49.2,5.76C48.34,5.721 47.492,5.978 46.8,6.49C46.131,6.986 45.731,7.767 45.72,8.6C45.72,10.37 47.4,10.96 48.63,11.4L48.81,11.46C49.68,11.78 50.61,12.22 50.61,13.46C50.555,14.577 49.621,15.466 48.503,15.466C48.452,15.466 48.401,15.464 48.35,15.46C46.7,15.46 46.47,14.26 46.3,13.39C46.21,12.91 46.13,12.49 45.78,12.49C45.43,12.49 45.42,12.87 45.4,13.05C45.38,13.23 45.34,14.51 45.34,14.52L45.34,14.62C45.34,14.93 45.34,15.24 45.68,15.41C46.475,15.814 47.349,16.043 48.24,16.08C49.84,16.08 52.08,15.08 52.08,12.78C52.08,10.78 50.58,10.21 49.25,9.7L49.23,9.69Z" style="fill:white;fill-rule:nonzero;"/>
    <path d="M53.23,12.88C53.13,13.731 53.29,14.592 53.69,15.35C54.051,15.815 54.612,16.083 55.2,16.07C55.924,16.054 56.613,15.747 57.11,15.22C57.336,15.045 57.489,14.792 57.54,14.51C57.535,14.362 57.418,14.24 57.27,14.23C57.17,14.23 57.08,14.31 56.93,14.44C56.651,14.745 56.271,14.941 55.86,14.99C55.645,15 55.435,14.92 55.28,14.77C54.896,14.123 54.738,13.367 54.83,12.62L54.83,7.06C54.83,6.85 54.83,6.77 54.9,6.74C54.97,6.71 55.07,6.74 55.22,6.74L56.73,6.74C56.9,6.74 57.04,6.74 57.14,6.66C57.229,6.547 57.269,6.403 57.25,6.26C57.25,6.1 57.25,5.83 56.94,5.83L55,5.83C54.84,5.83 54.81,5.83 54.81,5.52L54.81,4C54.81,3.68 54.65,3.61 54.52,3.61C54.39,3.61 54.24,3.81 54.2,3.88C53.831,4.751 53.207,5.49 52.41,6C52.278,6.084 52.193,6.224 52.18,6.38C52.177,6.46 52.21,6.537 52.27,6.59C52.447,6.697 52.658,6.733 52.86,6.69L53,6.69C53.066,6.678 53.134,6.678 53.2,6.69C53.266,6.702 53.2,6.69 53.2,6.94L53.2,12.85L53.23,12.88Z" style="fill:white;fill-rule:nonzero;"/>
    <path d="M59.78,7.78C60.3,6.934 61.217,6.41 62.21,6.39C62.807,6.357 63.391,6.583 63.81,7.01C64.096,7.343 64.265,7.761 64.29,8.2C64.313,8.574 64.033,8.903 63.66,8.94C62.924,9.071 62.177,9.128 61.43,9.11L59.75,9.11C59.62,9.11 59.41,9.11 59.34,9.05C59.328,9.021 59.328,8.989 59.34,8.96C59.407,8.537 59.567,8.133 59.81,7.78L59.78,7.78ZM62,16.06C63.186,16.099 64.338,15.647 65.18,14.81C65.73,14.29 65.97,13.97 65.97,13.75C65.97,13.747 65.97,13.743 65.97,13.74C65.97,13.581 65.839,13.45 65.68,13.45C65.68,13.45 65.68,13.45 65.68,13.45C65.56,13.45 65.46,13.55 65.27,13.74C64.643,14.454 63.74,14.866 62.79,14.87C60.39,14.87 59.13,12.65 59.13,10.46C59.13,10.19 59.13,10.04 59.22,9.98C59.31,9.92 59.45,9.91 59.7,9.91L65.7,9.91C65.81,9.91 66.06,9.91 66.06,9.41C66.04,8.605 65.794,7.822 65.35,7.15C64.656,6.247 63.569,5.729 62.43,5.76C61.078,5.754 59.779,6.287 58.82,7.24C57.825,8.208 57.303,9.565 57.39,10.95C57.39,13.82 59.39,16.07 61.96,16.07L62,16.06Z" style="fill:white;fill-rule:nonzero;"/>
    <path d="M71.25,7.52C71.09,7.31 70.98,7.19 70.79,7.19L70.74,7.19C70.92,7.19 71.03,7.32 71.19,7.52C71.415,7.941 71.93,8.125 72.37,7.94C71.944,8.107 71.455,7.919 71.25,7.51L71.25,7.52Z" style="fill:white;fill-rule:nonzero;"/>
    <path d="M66.78,15.88L70.51,15.88L66.85,15.88C66.55,15.88 66.45,15.75 66.45,15.53C66.45,15.523 66.449,15.516 66.449,15.51C66.449,15.308 66.609,15.14 66.81,15.13C66.62,15.13 66.39,15.23 66.39,15.55C66.39,15.87 66.54,15.9 66.79,15.9L66.78,15.88Z" style="fill:white;fill-rule:nonzero;"/>
    <path d="M69.63,7.31C70.025,6.655 70.632,6.154 71.35,5.89C70.605,6.138 69.973,6.646 69.57,7.32L69.47,7.45L69.47,7.52L69.63,7.31Z" style="fill:white;fill-rule:nonzero;"/>
    <path d="M67.87,13.79L67.87,9.3C67.903,8.883 67.848,8.464 67.71,8.07C67.577,7.966 67.408,7.92 67.24,7.94L67,7.94C66.78,7.94 66.64,7.82 66.64,7.64C66.64,7.46 66.93,7.23 67.1,7.18L67.18,7.18C67.776,6.944 68.309,6.574 68.74,6.1L68.78,6C68.862,5.879 68.987,5.793 69.13,5.76C68.967,5.781 68.822,5.878 68.74,6.02L68.68,6.1C68.249,6.574 67.716,6.944 67.12,7.18L67.04,7.18C66.87,7.24 66.58,7.33 66.58,7.64C66.58,7.95 66.72,7.94 66.94,7.94L67.19,7.94C67.358,7.92 67.527,7.966 67.66,8.07C67.798,8.464 67.853,8.883 67.82,9.3L67.82,13.79C67.82,14.5 67.82,14.89 67.31,15.04C67.87,14.91 67.9,14.52 67.88,13.78L67.87,13.79Z" style="fill:white;fill-rule:nonzero;"/>
    <path d="M7.56,18.15L5.66,18.15C5.554,18.143 5.45,18.179 5.37,18.25C5.318,18.303 5.289,18.375 5.29,18.45C5.288,18.525 5.317,18.597 5.37,18.65C5.467,18.723 5.589,18.755 5.71,18.74C5.97,18.74 6.18,18.74 6.28,18.96C6.38,19.331 6.421,19.716 6.4,20.1L6.4,23.68C6.467,24.225 6.324,24.776 6,25.22C5.532,25.662 4.903,25.893 4.26,25.86C3.95,25.86 2.92,25.81 2.53,25.11C2.337,24.545 2.262,23.946 2.31,23.35L2.31,19.51C2.31,19.17 2.31,18.95 2.4,18.86C2.49,18.77 2.63,18.76 2.92,18.76C3.21,18.76 3.34,18.66 3.34,18.47C3.34,18.466 3.34,18.462 3.34,18.458C3.34,18.299 3.209,18.168 3.05,18.168C3.04,18.168 3.03,18.169 3.02,18.17L0.46,18.17C0.372,18.163 0.286,18.192 0.22,18.25C0.165,18.309 0.136,18.389 0.14,18.47C0.14,18.66 0.28,18.76 0.55,18.76C0.82,18.76 1,18.76 1.07,18.86C1.14,18.96 1.16,19.18 1.16,19.51L1.16,23.71C1.023,24.492 1.295,25.293 1.88,25.83C2.527,26.261 3.294,26.474 4.07,26.44C4.874,26.503 5.672,26.248 6.29,25.73C6.837,25.177 7.099,24.401 7,23.63C6.901,22.859 7,19.69 7,19.69L7,19.48C7,18.96 7,18.75 7.46,18.75C7.92,18.75 7.95,18.65 7.95,18.45C7.95,18.25 7.95,18.16 7.58,18.16L7.56,18.15Z" style="fill:white;fill-rule:nonzero;"/>
    <path d="M13.88,25.77C13.49,25.77 13.47,25.56 13.48,25.07L13.48,22.76C13.542,22.146 13.401,21.527 13.08,21C12.758,20.526 12.213,20.25 11.64,20.27C10.999,20.323 10.403,20.625 9.98,21.11L9.9,21.18L9.9,20.58C9.912,20.491 9.886,20.4 9.83,20.33C9.787,20.289 9.729,20.268 9.67,20.27C9.559,20.282 9.459,20.344 9.4,20.44C9.156,20.707 8.856,20.916 8.52,21.05C8.42,21.05 8.22,21.15 8.22,21.37C8.224,21.499 8.331,21.602 8.46,21.602C8.47,21.602 8.48,21.601 8.49,21.6L8.64,21.6C8.78,21.6 8.85,21.6 8.87,21.66C8.89,21.72 8.95,21.85 8.95,22.34L8.95,24.97C8.95,25.46 8.95,25.63 8.55,25.67L8.41,25.67C8.3,25.67 8.03,25.67 8.03,25.97C8.03,25.971 8.03,25.971 8.03,25.972C8.03,26.114 8.147,26.232 8.29,26.232C8.3,26.232 8.31,26.231 8.32,26.23L10.46,26.23C10.467,26.231 10.474,26.231 10.481,26.231C10.618,26.231 10.731,26.118 10.731,25.981C10.731,25.974 10.731,25.967 10.73,25.96C10.73,25.7 10.46,25.68 10.34,25.67C9.94,25.67 9.93,25.46 9.94,24.97L9.94,22.74C9.935,22.69 9.932,22.639 9.932,22.589C9.932,21.828 10.54,21.193 11.3,21.16C11.702,21.13 12.088,21.327 12.3,21.67C12.46,22.045 12.525,22.454 12.49,22.86L12.49,25.07C12.49,25.56 12.49,25.73 12.09,25.77L12,25.77C11.89,25.77 11.62,25.77 11.62,26.07C11.62,26.071 11.62,26.071 11.62,26.072C11.62,26.214 11.737,26.332 11.88,26.332C11.89,26.332 11.9,26.331 11.91,26.33L14.05,26.33C14.057,26.331 14.064,26.331 14.071,26.331C14.208,26.331 14.321,26.218 14.321,26.081C14.321,26.074 14.321,26.067 14.32,26.06C14.32,25.8 14.05,25.78 13.93,25.77L13.88,25.77Z" style="fill:white;fill-rule:nonzero;"/>
    <path d="M15.55,18.74C15.547,18.767 15.545,18.794 15.545,18.821C15.545,19.17 15.822,19.461 16.17,19.48C16.55,19.48 16.8,19.17 16.8,18.72C16.835,18.35 16.56,18.017 16.19,17.98C15.829,18.01 15.547,18.315 15.547,18.678C15.547,18.698 15.548,18.719 15.55,18.74Z" style="fill:white;fill-rule:nonzero;"/>
    <path d="M17.14,25.78C16.75,25.78 16.73,25.57 16.74,25.08L16.74,20.62C16.752,20.531 16.726,20.44 16.67,20.37C16.627,20.329 16.569,20.308 16.51,20.31C16.398,20.32 16.297,20.383 16.24,20.48C15.996,20.747 15.696,20.956 15.36,21.09C15.25,21.09 15.06,21.19 15.06,21.41C15.064,21.539 15.171,21.642 15.3,21.642C15.31,21.642 15.32,21.641 15.33,21.64L15.48,21.64C15.62,21.64 15.69,21.64 15.71,21.7C15.73,21.76 15.79,21.89 15.79,22.38L15.79,25.01C15.79,25.5 15.79,25.67 15.39,25.71L15.33,25.71C15.22,25.71 14.95,25.71 14.95,26.01C14.95,26.011 14.95,26.012 14.95,26.013C14.95,26.15 15.063,26.263 15.2,26.263C15.213,26.263 15.227,26.262 15.24,26.26L17.38,26.26C17.387,26.261 17.394,26.261 17.401,26.261C17.538,26.261 17.651,26.148 17.651,26.011C17.651,26.004 17.651,25.997 17.65,25.99C17.65,25.73 17.38,25.71 17.26,25.7L17.14,25.78Z" style="fill:white;fill-rule:nonzero;"/>
    <path d="M23.41,20.47L21.7,20.47C21.63,20.47 21.4,20.47 21.4,20.71C21.4,20.95 21.73,20.98 21.84,20.98C21.95,20.98 22.15,20.98 22.15,21.19C22.131,21.331 22.094,21.469 22.04,21.6L22.04,21.7L20.83,24.7L19.83,21.84C19.754,21.664 19.7,21.479 19.67,21.29C19.67,21.11 19.85,21.06 19.96,21.06C20.079,21.08 20.202,21.051 20.3,20.98C20.347,20.936 20.373,20.874 20.37,20.81C20.373,20.74 20.348,20.671 20.3,20.62C20.23,20.564 20.139,20.538 20.05,20.55L17.95,20.55C17.875,20.541 17.799,20.562 17.74,20.61C17.696,20.659 17.674,20.724 17.68,20.79C17.68,20.97 17.8,21.06 18.02,21.06C18.24,21.06 18.43,21.22 18.58,21.63L18.58,21.71L20.23,26.15L20.3,26.31C20.317,26.421 20.408,26.508 20.52,26.52C20.68,26.52 20.76,26.33 20.81,26.2L22.44,22.28L22.51,22.1C22.68,21.66 22.87,21.17 23.27,21.1C23.37,21.1 23.63,21.1 23.63,20.81C23.634,20.748 23.612,20.686 23.57,20.64C23.513,20.616 23.447,20.616 23.39,20.64L23.41,20.47Z" style="fill:white;fill-rule:nonzero;"/>
    <path d="M25.16,21.59C25.453,21.114 25.971,20.819 26.53,20.81C26.862,20.789 27.187,20.913 27.42,21.15C27.576,21.336 27.668,21.568 27.68,21.81C27.68,22.02 27.59,22.13 27.36,22.19C26.938,22.266 26.509,22.299 26.08,22.29L24.88,22.29C24.918,22.054 25.007,21.829 25.14,21.63L25.16,21.59ZM25.08,22.84L28.58,22.84C28.64,22.84 28.85,22.84 28.85,22.5C28.839,22.02 28.693,21.552 28.43,21.15C28.017,20.611 27.369,20.302 26.69,20.32C25.888,20.315 25.117,20.633 24.55,21.2C23.956,21.772 23.641,22.577 23.69,23.4C23.688,23.448 23.686,23.495 23.686,23.543C23.686,25.061 24.894,26.328 26.41,26.4C27.116,26.42 27.8,26.149 28.3,25.65C28.72,25.25 28.77,25.09 28.77,24.99C28.77,24.987 28.77,24.983 28.77,24.98C28.77,24.859 28.671,24.76 28.55,24.76C28.55,24.76 28.55,24.76 28.55,24.76C28.46,24.76 28.39,24.83 28.27,24.94C27.916,25.343 27.406,25.576 26.87,25.58C25.698,25.484 24.785,24.493 24.785,23.318C24.785,23.232 24.79,23.146 24.8,23.06L24.8,22.82C24.879,22.803 24.961,22.803 25.04,22.82L25.08,22.84Z" style="fill:white;fill-rule:nonzero;"/>
    <path d="M32.63,20.39C32.095,20.46 31.624,20.779 31.36,21.25L31.36,20.62C31.37,20.534 31.345,20.447 31.29,20.38C31.247,20.339 31.189,20.318 31.13,20.32C31.018,20.33 30.917,20.393 30.86,20.49C30.616,20.757 30.316,20.966 29.98,21.1C29.87,21.1 29.68,21.2 29.68,21.42C29.684,21.549 29.791,21.652 29.92,21.652C29.93,21.652 29.94,21.651 29.95,21.65L30,21.65C30.14,21.65 30.21,21.65 30.23,21.71C30.25,21.77 30.31,21.9 30.31,22.39L30.31,25.02C30.31,25.51 30.31,25.68 29.91,25.72L29.85,25.72C29.74,25.72 29.47,25.72 29.47,26.02C29.47,26.024 29.47,26.029 29.47,26.033C29.47,26.17 29.583,26.283 29.72,26.283C29.733,26.283 29.747,26.282 29.76,26.28L31.9,26.28C31.907,26.281 31.914,26.281 31.921,26.281C32.058,26.281 32.171,26.168 32.171,26.031C32.171,26.024 32.171,26.017 32.17,26.01C32.17,25.75 31.9,25.73 31.78,25.72C31.39,25.72 31.37,25.51 31.38,25.02L31.38,22.81C31.334,22.417 31.418,22.02 31.62,21.68C31.73,21.52 31.91,21.28 32.09,21.28C32.27,21.28 32.23,21.34 32.31,21.45C32.414,21.631 32.602,21.747 32.81,21.76C32.817,21.76 32.825,21.76 32.832,21.76C33.156,21.76 33.422,21.494 33.422,21.17C33.422,21.154 33.421,21.137 33.42,21.12C33.42,21.12 33.42,21.119 33.42,21.119C33.42,20.713 33.086,20.379 32.68,20.379C32.667,20.379 32.653,20.379 32.64,20.38L32.63,20.39Z" style="fill:white;fill-rule:nonzero;"/>
    <path d="M36.18,22.62C35.56,22.38 35.01,22.18 35.01,21.62C35.057,21.153 35.461,20.797 35.93,20.81C36.433,20.764 36.896,21.106 37,21.6C37.08,21.79 37.15,21.98 37.33,21.98C37.391,21.98 37.449,21.954 37.49,21.91C37.589,21.719 37.617,21.5 37.57,21.29L37.57,21.13C37.57,21.09 37.57,20.68 37.36,20.56C36.965,20.421 36.549,20.346 36.13,20.34C35.617,20.316 35.111,20.472 34.7,20.78C34.319,21.072 34.087,21.52 34.07,22C34.07,23.07 35.07,23.42 35.8,23.68L35.9,23.68C36.52,23.91 36.9,24.17 36.9,24.77C36.87,25.39 36.352,25.884 35.731,25.884C35.701,25.884 35.67,25.882 35.64,25.88C34.73,25.88 34.64,25.23 34.5,24.72C34.44,24.43 34.39,24.15 34.15,24.15C33.91,24.15 33.89,24.41 33.88,24.53L33.88,25.45C33.88,25.64 33.88,25.85 34.11,25.96C34.578,26.201 35.094,26.338 35.62,26.36C35.675,26.364 35.729,26.366 35.784,26.366C36.908,26.366 37.85,25.481 37.92,24.36C37.92,23.15 37.02,22.82 36.23,22.52L36.18,22.62Z" style="fill:white;fill-rule:nonzero;"/>
    <path d="M40.67,18.71C40.705,18.34 40.43,18.007 40.06,17.97C39.699,18 39.417,18.305 39.417,18.668C39.417,18.688 39.418,18.709 39.42,18.73C39.417,18.757 39.415,18.784 39.415,18.811C39.415,19.16 39.692,19.451 40.04,19.47C40.42,19.47 40.67,19.16 40.67,18.71Z" style="fill:white;fill-rule:nonzero;"/>
    <path d="M41,25.77C40.61,25.77 40.59,25.56 40.6,25.07L40.6,20.62C40.613,20.531 40.588,20.44 40.53,20.37C40.487,20.329 40.429,20.308 40.37,20.31C40.259,20.322 40.159,20.384 40.1,20.48C39.856,20.747 39.555,20.955 39.22,21.09C39.11,21.09 38.92,21.19 38.92,21.41C38.924,21.539 39.031,21.642 39.16,21.642C39.17,21.642 39.18,21.641 39.19,21.64L39.34,21.64C39.48,21.64 39.55,21.64 39.57,21.7C39.59,21.76 39.65,21.89 39.65,22.38L39.65,25.01C39.65,25.5 39.65,25.67 39.25,25.71L39.19,25.71C39.08,25.71 38.81,25.71 38.81,26.01C38.81,26.011 38.81,26.011 38.81,26.012C38.81,26.154 38.927,26.272 39.07,26.272C39.08,26.272 39.09,26.271 39.1,26.27L41.24,26.27C41.247,26.271 41.254,26.271 41.261,26.271C41.398,26.271 41.511,26.158 41.511,26.021C41.511,26.014 41.511,26.007 41.51,26C41.51,25.74 41.24,25.72 41.12,25.71L41,25.77Z" style="fill:white;fill-rule:nonzero;"/>
    <path d="M44.6,25.25C44.52,25.25 44.46,25.3 44.37,25.39C44.217,25.556 44.013,25.665 43.79,25.7C43.679,25.707 43.57,25.667 43.49,25.59C43.25,25.35 43.25,24.76 43.25,24.37L43.25,20.98C43.3,20.972 43.35,20.972 43.4,20.98L44.28,20.98C44.378,21.001 44.48,20.979 44.56,20.92C44.622,20.845 44.651,20.747 44.64,20.65C44.64,20.57 44.64,20.35 44.41,20.35L43.25,20.35C43.243,20.314 43.243,20.276 43.25,20.24L43.25,19.34C43.25,19.09 43.1,19.06 43.03,19.06C42.96,19.06 42.82,19.2 42.8,19.25C42.598,19.751 42.249,20.18 41.8,20.48C41.709,20.536 41.649,20.633 41.64,20.74C41.639,20.801 41.665,20.859 41.71,20.9C41.794,20.963 41.895,20.998 42,21L42.18,21C42.183,21.033 42.183,21.067 42.18,21.1L42.18,24.54C42.127,25.045 42.229,25.554 42.47,26C42.689,26.284 43.031,26.448 43.39,26.44C43.823,26.429 44.234,26.245 44.53,25.93C44.673,25.819 44.77,25.659 44.8,25.48C44.8,25.363 44.707,25.265 44.59,25.26L44.6,25.25Z" style="fill:white;fill-rule:nonzero;"/>
    <path d="M50.8,20.47L49,20.47C48.841,20.47 48.71,20.601 48.71,20.76C48.71,20.98 48.98,20.98 49.1,20.98C49.41,20.98 49.57,21.09 49.57,21.31C49.546,21.469 49.499,21.624 49.43,21.77L48.28,24.77L47.12,21.7C47.056,21.557 47.016,21.405 47,21.25C47,21.01 47.4,21 47.45,21C47.72,21 47.85,20.93 47.85,20.78C47.85,20.777 47.85,20.773 47.85,20.77C47.85,20.616 47.724,20.49 47.57,20.49C47.567,20.49 47.563,20.49 47.56,20.49L45.37,20.49C45.357,20.488 45.343,20.487 45.33,20.487C45.166,20.487 45.029,20.617 45.02,20.78C45.02,21 45.3,21 45.42,21C45.7,21 45.82,21.27 45.96,21.68L45.96,21.82L47.46,25.76L47.51,25.89C47.564,26.007 47.597,26.132 47.61,26.26C47.603,26.35 47.58,26.439 47.54,26.52L47.54,26.59L47.15,27.59L47.15,27.68C47.1,27.84 47.05,27.94 46.97,27.96C46.844,27.976 46.716,27.976 46.59,27.96L46.5,27.96C46.01,27.96 46.01,28.4 46.01,28.58C46.002,28.72 46.053,28.858 46.15,28.96C46.324,29.091 46.544,29.149 46.76,29.12C47.25,29.12 47.32,28.98 47.43,28.55L49.71,22.55C49.873,22.093 50.077,21.651 50.32,21.23C50.421,21.105 50.563,21.02 50.72,20.99L50.77,20.99C50.88,20.99 51.08,20.99 51.08,20.79C51.08,20.787 51.08,20.783 51.08,20.78C51.08,20.621 50.949,20.49 50.79,20.49C50.787,20.49 50.783,20.49 50.78,20.49L50.8,20.47Z" style="fill:white;fill-rule:nonzero;"/>
    <path d="M72.93,7C72.939,7.389 72.719,7.749 72.37,7.92C72.758,7.785 73.014,7.41 73,7C72.995,6.356 72.464,5.828 71.82,5.828C71.8,5.828 71.78,5.829 71.76,5.83C71.627,5.814 71.493,5.814 71.36,5.83C71.473,5.819 71.587,5.819 71.7,5.83C71.717,5.829 71.733,5.829 71.75,5.829C72.394,5.829 72.925,6.356 72.93,7Z" style="fill:white;fill-rule:nonzero;"/>
    <path d="M69.41,6.17L69.41,7.33C69.405,7.4 69.405,7.47 69.41,7.54L69.47,7.46L69.47,7.32C69.47,7.25 69.47,7.32 69.47,7.26L69.47,6.15C69.486,6.029 69.454,5.907 69.38,5.81C69.324,5.756 69.248,5.727 69.17,5.73C69.244,5.731 69.316,5.76 69.37,5.81C69.444,5.907 69.476,6.029 69.46,6.15L69.41,6.17Z" style="fill:white;fill-rule:nonzero;"/>
    <path d="M66.79,15.1L67.26,15.1L66.79,15.1Z" style="fill:white;fill-rule:nonzero;"/>
    <path d="M69.84,7.92C69.484,8.522 69.333,9.224 69.41,9.92L69.41,13.79C69.41,14.61 69.41,15 70.18,15.08L70.27,15.08C70.47,15.08 70.85,15.08 70.85,15.49C70.851,15.5 70.851,15.51 70.851,15.52C70.851,15.701 70.702,15.85 70.521,15.85C70.521,15.85 70.52,15.85 70.52,15.85C70.527,15.85 70.534,15.851 70.541,15.851C70.728,15.851 70.881,15.697 70.881,15.511C70.881,15.5 70.881,15.49 70.88,15.48C70.88,15.12 70.51,15.09 70.3,15.07L70.21,15.07C69.44,14.99 69.42,14.59 69.44,13.78L69.44,9.92C69.36,9.226 69.507,8.524 69.86,7.92C70.06,7.64 70.36,7.25 70.7,7.21C70.33,7.21 70.02,7.65 69.81,7.94L69.84,7.92Z" style="fill:white;fill-rule:nonzero;"/>
    <path d="M66.44,15.52C66.44,15.74 66.59,15.87 66.84,15.87L70.5,15.87C70.5,15.87 70.501,15.87 70.501,15.87C70.682,15.87 70.831,15.721 70.831,15.54C70.831,15.53 70.831,15.52 70.83,15.51C70.83,15.15 70.46,15.12 70.25,15.1L70.16,15.1C69.39,15.02 69.37,14.62 69.39,13.81L69.39,9.93C69.313,9.234 69.464,8.532 69.82,7.93C70.03,7.64 70.34,7.2 70.71,7.2L70.77,7.2C70.96,7.2 71.06,7.33 71.23,7.53C71.435,7.939 71.924,8.127 72.35,7.96C72.721,7.789 72.951,7.408 72.93,7C72.925,6.356 72.394,5.828 71.75,5.828C71.73,5.828 71.71,5.829 71.69,5.83C71.577,5.819 71.463,5.819 71.35,5.83C70.632,6.094 70.025,6.595 69.63,7.25L69.47,7.46L69.47,7.39L69.41,7.47C69.405,7.4 69.405,7.33 69.41,7.26C69.415,7.19 69.41,7.26 69.41,7.2L69.41,6.17C69.426,6.049 69.394,5.927 69.32,5.83C69.266,5.78 69.194,5.751 69.12,5.75C68.977,5.783 68.852,5.869 68.77,5.99L68.71,6.07C68.279,6.544 67.746,6.914 67.15,7.15L67.07,7.15C66.9,7.21 66.61,7.3 66.61,7.61C66.61,7.92 66.75,7.91 66.97,7.91L67.22,7.91C67.388,7.89 67.557,7.936 67.69,8.04C67.828,8.434 67.883,8.853 67.85,9.27L67.85,13.76C67.85,14.5 67.85,14.89 67.28,15.02L66.8,15.02C66.599,15.03 66.439,15.198 66.439,15.4C66.439,15.406 66.44,15.413 66.44,15.42L66.44,15.52Z" style="fill:white;fill-rule:nonzero;"/>
    <path d="M72.59,18.11L72.59,31.9C72.3,35.24 68.97,40.76 63.47,42.47L63.21,42.47C57.71,40.77 54.37,35.26 54.08,31.94L54.08,18L72.58,18L72.58,18.14L72.59,18.11ZM73.01,17.62L53.63,17.62L53.63,32.04C53.93,35.47 57.37,41.17 63.03,42.92L63.33,42.98L63.61,42.92C69.27,41.17 72.71,35.43 73.01,31.92L73.01,17.62Z" style="fill:white;fill-rule:nonzero;"/>
    <path d="M63.25,24.8L63.25,24.96L63.08,24.96C63.089,24.989 63.089,25.021 63.08,25.05C63.08,25.141 63.006,25.215 62.915,25.215C62.824,25.215 62.75,25.141 62.75,25.05C62.746,25.024 62.746,24.996 62.75,24.97L62.36,24.97L63.09,24.69L63.25,24.8ZM62.79,24.63C62.79,24.68 61.79,24.73 61.64,24.93C61.459,25.115 61.459,25.415 61.64,25.6C61.696,25.409 61.871,25.275 62.07,25.27C62.482,25.363 62.842,25.615 63.07,25.97C62.532,26.035 61.988,26.035 61.45,25.97C61.333,25.887 61.254,25.761 61.23,25.62C61.206,25.479 61.16,25.95 61.32,26.06C61.405,26.128 61.512,26.16 61.62,26.15L63.11,26.15C63.11,26.24 63.11,26.49 62.83,26.51L61.83,26.51C61.83,26.51 61.83,26.77 62.21,26.66C62.29,26.66 62.57,26.56 62.65,26.66C62.73,26.76 62.89,27.08 62.28,27.17C62.28,27.17 63.18,27.23 63.28,26.46C63.28,26.46 63.35,27.04 63.53,27.04C63.71,27.04 63.73,26.44 63.73,26.44C63.896,26.91 64.315,27.248 64.81,27.31C64.16,26.86 64.2,25.66 64.2,25.57C64.2,24.97 64.76,25.02 64.8,24.67C64.84,24.32 64.26,24.28 64.26,24.28C64.26,24.28 64.51,24.28 64.56,24.4C64.67,24.68 64.18,24.72 64.18,24.72C63.59,24.87 63.39,24.52 63.18,24.48C62.97,24.44 62.93,24.58 62.88,24.63L62.79,24.63Z" style="fill:white;fill-rule:nonzero;"/>
    <path d="M62.63,36.77C62.748,36.602 62.839,36.416 62.9,36.22C62.578,36.343 62.222,36.343 61.9,36.22C61.578,36.097 61.9,36.39 61.35,36.63C60.696,36.782 60.229,37.37 60.229,38.042C60.229,38.486 60.432,38.905 60.78,39.18C61.128,39.455 60.3,37.7 61.04,37.35C61.04,37.35 61.68,37.98 62.62,36.73L62.63,36.77Z" style="fill:white;fill-rule:nonzero;"/>
    <path d="M59,27.47C59.141,27.725 59.331,27.949 59.56,28.13C59.287,28.259 59.038,28.431 58.82,28.64C59.074,28.847 59.384,28.972 59.71,29C59.445,29.16 59.211,29.366 59.02,29.61C59.293,29.783 59.621,29.851 59.94,29.8C60.259,29.749 59.38,30.18 59.34,30.6C59.708,30.688 60.097,30.56 60.34,30.27C60.583,29.98 59.98,30.89 60.19,31.27C60.248,31.366 60.318,31.453 60.4,31.53C60.75,31.36 60.81,31.34 60.84,30.96L60.84,29.7C60.84,29.7 60.1,29.58 60.27,28.28C60.27,28.28 61.27,28.97 61.4,28.03C61.53,26.89 59.81,27.48 59.93,25.24C59.93,25.24 59.13,26.72 59.87,27.24C59.573,27.219 59.276,27.278 59.01,27.41L59,27.47Z" style="fill:white;fill-rule:nonzero;"/>
    <path d="M60,32.47C59.91,33.296 59.341,33.995 58.55,34.25C59.791,34.35 60.949,33.582 61.34,32.4C61.223,32.246 61.131,32.074 61.07,31.89L61.07,31.79C60.84,31.955 60.587,32.086 60.32,32.18C60.167,32.05 60.023,31.91 59.89,31.76C59.761,31.591 59.669,31.397 59.62,31.19C59.332,31.167 59.061,31.048 58.85,30.85C58.839,30.616 58.884,30.383 58.98,30.17C58.767,30.059 58.572,29.917 58.4,29.75C58.481,29.556 58.588,29.374 58.72,29.21C58.26,28.86 58.25,28.64 58.25,28.64C58.377,28.398 58.558,28.189 58.78,28.03C58.637,27.807 58.519,27.569 58.43,27.32C58.59,27.143 58.784,27 59,26.9C58.968,26.715 58.968,26.525 59,26.34C59.032,26.155 56.29,24.92 56,24C55.933,24.443 55.909,24.892 55.93,25.34C55.93,25.81 56.7,26.57 58.45,27.74C57.38,27.57 55.91,27 55.59,26.42C55.586,26.87 55.647,27.318 55.77,27.75C55.92,28.15 56.68,28.44 58.39,29.28C57.446,29.602 56.4,29.421 55.62,28.8C55.746,29.216 55.914,29.618 56.12,30C56.3,30.28 57.01,30.75 58.66,30.51C58.084,31.335 57.061,31.732 56.08,31.51C55.099,31.288 56.16,32.23 56.65,32.45C57.14,32.67 57.76,32.7 58.96,31.77C58.599,32.782 57.482,33.331 56.46,33C56.675,33.395 56.975,33.737 57.34,34C57.75,34.22 58.61,34 59.99,32.54L60,32.47Z" style="fill:white;fill-rule:nonzero;"/>
    <path d="M62.2,34C62.038,33.618 61.833,33.256 61.59,32.92C61.347,32.584 61.59,33.03 61.33,33.41C60.7,34.41 60.14,34.33 60.14,34.33C60.575,34.475 61.049,34.443 61.46,34.24L61.34,34.55C61.235,34.919 61.27,35.315 61.44,35.66C61.27,34.79 62.2,33.99 62.2,33.99L62.2,34Z" style="fill:white;fill-rule:nonzero;"/>
    <path d="M60.64,36C60.58,35.73 60.36,35.8 60.21,35.87C60.126,35.899 60.034,35.899 59.95,35.87C59.85,35.82 59.81,35.7 59.95,35.62C60.317,35.487 60.623,35.223 60.81,34.88C60.598,34.905 60.383,34.885 60.18,34.82C59.977,34.755 59.53,35.69 59.04,35.46C58.88,35.39 58.82,35.12 58.81,35C58.812,34.988 58.812,34.977 58.812,34.965C58.812,34.822 58.695,34.705 58.552,34.705C58.479,34.705 58.409,34.736 58.36,34.79C58.21,34.96 58.36,35.15 58.54,35.21C58.72,35.27 58.77,35.37 58.71,35.46C58.65,35.55 58.57,35.52 58.5,35.52C58.43,35.52 57.98,35.37 57.87,35.69C57.76,36.01 58.17,36.22 58.42,36.01C58.67,35.8 59.09,35.79 59.19,35.95C59.29,36.11 59.29,36.19 58.93,36.46C58.82,36.54 58.22,36.92 58.64,37.31C58.78,37.44 59.17,37.39 59.27,36.85C59.37,36.31 59.47,36.24 59.62,36.17C59.77,36.1 59.94,36.06 60.07,36.17L60.19,36.26C60.237,36.296 60.295,36.315 60.354,36.315C60.502,36.315 60.624,36.194 60.624,36.045C60.624,36.03 60.623,36.015 60.62,36L60.64,36Z" style="fill:white;fill-rule:nonzero;"/>
    <path d="M58.13,34.79C58.15,34.71 58.205,34.644 58.28,34.61C57.75,34.42 57.7,34.9 57.7,34.9C57.748,34.8 57.85,34.736 57.961,34.736C58.022,34.736 58.081,34.755 58.13,34.79Z" style="fill:white;fill-rule:nonzero;"/>
    <path d="M57.71,36.15C57.638,36.056 57.616,35.933 57.65,35.82C57.5,35.92 57.41,36.089 57.41,36.269C57.41,36.427 57.48,36.577 57.6,36.68C57.39,36.27 57.71,36.15 57.71,36.15Z" style="fill:white;fill-rule:nonzero;"/>
    <path d="M58.48,37.55C58.38,37.486 58.317,37.378 58.31,37.26C58.248,37.351 58.215,37.459 58.215,37.569C58.215,37.794 58.352,37.997 58.56,38.08C58.21,37.77 58.47,37.54 58.47,37.54L58.48,37.55Z" style="fill:white;fill-rule:nonzero;"/>
    <path d="M60.85,36.29C60.94,36.29 61.01,36.41 60.98,36.64C61.049,36.574 61.087,36.483 61.087,36.388C61.087,36.242 60.996,36.111 60.86,36.06C60.894,36.133 60.894,36.217 60.86,36.29L60.92,36.29L60.85,36.29Z" style="fill:white;fill-rule:nonzero;"/>
    <path d="M66,36C65.864,36.051 65.773,36.182 65.773,36.328C65.773,36.423 65.811,36.514 65.88,36.58C65.88,36.35 65.88,36.26 66.01,36.23L66.07,36.23C66.012,36.169 65.986,36.083 66,36Z" style="fill:white;fill-rule:nonzero;"/>
    <path d="M64.93,30.71C64.819,30.989 64.5,31.128 64.22,31.02C64.148,30.995 64.08,30.958 64.02,30.91L63.95,30.91L63.95,31.56L64.03,31.5L64.13,31.64C64.174,31.701 64.208,31.768 64.23,31.84C64.325,32.076 64.241,32.348 64.03,32.49L63.92,32.55C63.859,32.733 63.72,32.88 63.54,32.95L63.4,32.95C63.22,32.88 63.081,32.733 63.02,32.55L62.91,32.49C62.699,32.348 62.615,32.076 62.71,31.84C62.733,31.769 62.766,31.701 62.81,31.64L62.91,31.5L62.99,31.56L62.99,30.9L62.91,30.95C62.85,30.998 62.782,31.035 62.71,31.06C62.474,31.155 62.202,31.071 62.06,30.86C62.036,30.826 62.016,30.789 62,30.75C61.814,30.69 61.664,30.551 61.59,30.37L61.59,30.23C61.662,30.048 61.813,29.908 62,29.85C62.016,29.811 62.036,29.774 62.06,29.74C62.202,29.529 62.474,29.445 62.71,29.54L62.87,29.62L62.87,29.55C62.826,29.489 62.793,29.421 62.77,29.35C62.675,29.114 62.759,28.842 62.97,28.7L63.08,28.64C63.142,28.458 63.281,28.311 63.46,28.24L63.6,28.24C63.78,28.31 63.919,28.457 63.98,28.64L64.09,28.7C64.301,28.842 64.385,29.114 64.29,29.35C64.268,29.422 64.234,29.489 64.19,29.55L64.19,29.61L64.34,29.54C64.576,29.445 64.848,29.529 64.99,29.74C65.014,29.774 65.034,29.811 65.05,29.85C65.233,29.911 65.38,30.05 65.45,30.23L65.45,30.37C65.376,30.551 65.226,30.69 65.04,30.75L64.93,30.71ZM64.62,27.8C64.311,27.786 64.016,27.67 63.78,27.47C63.698,27.581 63.582,27.661 63.45,27.7C63.318,27.667 63.203,27.585 63.13,27.47C62.887,27.665 62.591,27.78 62.28,27.8C61.74,29.22 60.56,30.09 61.64,32.01C62.72,33.93 63.59,34.29 62.01,35.67C62.01,35.67 63.01,35.95 63.25,35.08C63.25,35.08 63.25,36.03 63.44,36.28C63.67,36.03 63.63,35.06 63.63,35.06C63.86,35.93 64.87,35.65 64.87,35.65C63.29,34.28 64.11,34 65.24,31.99C66.37,29.98 65.15,29.2 64.61,27.79L64.62,27.8Z" style="fill:white;fill-rule:nonzero;"/>
    <path d="M65.53,36.67C64.97,36.43 64.98,36.26 64.98,36.26C64.658,36.383 64.302,36.383 63.98,36.26C64.04,36.457 64.131,36.642 64.25,36.81C65.18,38.06 65.83,37.43 65.83,37.43C66.57,37.78 66.09,39.26 66.09,39.26C66.438,38.985 66.641,38.566 66.641,38.122C66.641,37.45 66.174,36.862 65.52,36.71L65.53,36.67Z" style="fill:white;fill-rule:nonzero;"/>
    <path d="M66.61,28.32C66.79,29.62 66.04,29.74 66.04,29.74L66.04,31C66.04,31.39 66.12,31.4 66.48,31.57C66.562,31.493 66.632,31.406 66.69,31.31C66.91,30.89 66.54,30.31 66.54,30.31C66.783,30.6 67.172,30.728 67.54,30.64C67.54,30.22 66.94,29.84 66.94,29.84C67.26,29.892 67.587,29.824 67.86,29.65C67.669,29.406 67.435,29.2 67.17,29.04C67.496,29.013 67.807,28.887 68.06,28.68C67.842,28.471 67.593,28.299 67.32,28.17C67.549,27.989 67.739,27.765 67.88,27.51C67.614,27.378 67.317,27.319 67.02,27.34C67.76,26.8 66.96,25.34 66.96,25.34C67.07,27.57 65.35,26.99 65.49,28.13C65.6,29.06 66.62,28.38 66.62,28.38L66.61,28.32Z" style="fill:white;fill-rule:nonzero;"/>
    <path d="M68.5,27.33C68.411,27.579 68.293,27.817 68.15,28.04C68.372,28.199 68.554,28.408 68.68,28.65C68.806,28.892 68.68,28.87 68.21,29.22C68.342,29.384 68.449,29.566 68.53,29.76C68.358,29.927 68.163,30.069 67.95,30.18C68.046,30.393 68.091,30.626 68.08,30.86C67.869,31.058 67.598,31.177 67.31,31.2C67.261,31.407 67.169,31.601 67.04,31.77C66.907,31.92 66.763,32.06 66.61,32.19C66.343,32.096 66.09,31.965 65.86,31.8L65.86,31.9C65.799,32.084 65.707,32.256 65.59,32.41C65.981,33.592 67.139,34.36 68.38,34.26C67.589,34.005 67.02,33.306 66.93,32.48C68.31,33.98 69.16,34.16 69.58,33.94C69.945,33.677 70.245,33.335 70.46,32.94C69.432,33.269 68.313,32.71 67.96,31.69C69.16,32.62 69.96,32.52 70.27,32.37C70.58,32.22 70.84,31.43 70.84,31.43C69.859,31.652 68.836,31.255 68.26,30.43C69.91,30.67 70.62,30.2 70.8,29.92C71.011,29.548 71.185,29.156 71.32,28.75C70.54,29.371 69.494,29.552 68.55,29.23C70.26,28.39 71.02,28.1 71.17,27.7C71.293,27.268 71.354,26.82 71.35,26.37C71.03,26.95 69.56,27.52 68.49,27.69C70.24,26.52 70.96,25.76 71.01,25.29C71.011,24.857 70.971,24.425 70.89,24C70.59,24.92 67.89,26.33 67.89,26.33C67.922,26.515 67.922,26.705 67.89,26.89C68.136,26.983 68.358,27.13 68.54,27.32L68.5,27.33Z" style="fill:white;fill-rule:nonzero;"/>
    <path d="M66.74,34.3C66.74,34.3 66.17,34.37 65.55,33.38C65.31,33 65.29,32.91 65.29,32.89C65.05,33.226 64.849,33.588 64.69,33.97C64.531,34.352 65.61,34.76 65.45,35.64C65.62,35.295 65.655,34.899 65.55,34.53L65.43,34.22C65.841,34.423 66.315,34.455 66.75,34.31L66.74,34.3Z" style="fill:white;fill-rule:nonzero;"/>
    <path d="M68.35,35.57C68.28,35.57 68.19,35.57 68.14,35.51C68.09,35.45 68.22,35.3 68.31,35.26C68.4,35.22 68.64,35.02 68.49,34.84C68.447,34.75 68.355,34.693 68.256,34.693C68.113,34.693 67.996,34.81 67.996,34.953C67.996,34.968 67.997,34.984 68,35C68,35.12 67.94,35.38 67.77,35.46C67.28,35.69 66.63,34.82 66.63,34.82C66.427,34.885 66.212,34.905 66,34.88C66.187,35.223 66.493,35.487 66.86,35.62C67.03,35.7 67,35.82 66.86,35.87C66.776,35.899 66.684,35.899 66.6,35.87C66.45,35.8 66.24,35.73 66.17,36C66.167,36.015 66.166,36.03 66.166,36.045C66.166,36.194 66.288,36.315 66.436,36.315C66.495,36.315 66.553,36.296 66.6,36.26L66.72,36.17C66.85,36.06 67.09,36.17 67.17,36.17C67.25,36.17 67.44,36.44 67.52,36.85C67.6,37.26 68.01,37.45 68.15,37.31C68.57,36.92 67.97,36.54 67.86,36.46C67.5,36.19 67.56,36.03 67.6,35.95C67.64,35.87 68.1,35.78 68.37,36.01C68.64,36.24 69.04,36.01 68.92,35.69C68.8,35.37 68.4,35.53 68.29,35.52L68.35,35.57Z" style="fill:white;fill-rule:nonzero;"/>
    <path d="M68.6,34.61C68.675,34.644 68.73,34.71 68.75,34.79C68.799,34.755 68.858,34.736 68.919,34.736C69.03,34.736 69.132,34.8 69.18,34.9C69.228,35 69.18,34.42 68.6,34.61Z" style="fill:white;fill-rule:nonzero;"/>
    <path d="M69.17,36.15C69.17,36.15 69.49,36.27 69.28,36.68C69.4,36.577 69.47,36.427 69.47,36.269C69.47,36.089 69.38,35.92 69.23,35.82C69.264,35.933 69.242,36.056 69.17,36.15Z" style="fill:white;fill-rule:nonzero;"/>
    <path d="M68.4,37.55C68.4,37.55 68.66,37.78 68.31,38.09C68.521,38.011 68.661,37.809 68.661,37.584C68.661,37.472 68.626,37.362 68.56,37.27C68.553,37.388 68.49,37.496 68.39,37.56L68.4,37.55Z" style="fill:white;fill-rule:nonzero;"/>
    <path d="M65.65,38.11C64.783,38.143 63.983,37.631 63.65,36.83C63.605,36.915 63.516,36.969 63.42,36.969C63.324,36.969 63.235,36.915 63.19,36.83C62.857,37.631 62.057,38.143 61.19,38.11C60.323,38.077 61.27,38.42 61.81,38.45C61.81,38.45 60.88,38.88 61.42,39.31C61.77,39.59 62.04,38.8 62.04,38.8C62.04,38.8 62.04,39.53 62.71,39.54C62.71,39.54 61.77,38.99 62.71,37.71C62.62,38.61 62.93,39.45 63.35,39.45C63.77,39.45 64.09,38.61 63.99,37.71C64.99,38.99 63.99,39.54 63.99,39.54C64.62,39.54 64.66,38.8 64.66,38.8C64.66,38.8 64.93,39.6 65.28,39.31C65.81,38.88 64.89,38.45 64.89,38.45C65.43,38.45 65.51,38.11 65.51,38.11L65.65,38.11Z" style="fill:white;fill-rule:nonzero;"/>
    <path d="M64.6,30.09C64.637,30.025 64.637,29.945 64.6,29.88C64.545,29.794 64.434,29.76 64.34,29.8C64.347,29.826 64.347,29.854 64.34,29.88C64.346,29.944 64.315,30.006 64.26,30.04C64.201,30.054 64.139,30.054 64.08,30.04L63.62,30.04L63.62,29.34C63.606,29.281 63.606,29.219 63.62,29.16C63.655,29.102 63.723,29.07 63.79,29.08C63.816,29.073 63.844,29.073 63.87,29.08C63.906,28.986 63.873,28.878 63.79,28.82C63.723,28.779 63.637,28.779 63.57,28.82C63.587,28.688 63.529,28.557 63.42,28.48C63.311,28.557 63.253,28.688 63.27,28.82C63.203,28.779 63.117,28.779 63.05,28.82C62.967,28.878 62.934,28.986 62.97,29.08C62.996,29.073 63.024,29.073 63.05,29.08C63.114,29.074 63.176,29.105 63.21,29.16C63.223,29.216 63.223,29.274 63.21,29.33L63.21,30.03L62.72,30.03C62.661,30.044 62.599,30.044 62.54,30.03C62.485,29.996 62.454,29.934 62.46,29.87C62.453,29.844 62.453,29.816 62.46,29.79C62.366,29.75 62.255,29.784 62.2,29.87C62.163,29.935 62.163,30.015 62.2,30.08C62.064,30.059 61.928,30.118 61.85,30.23C61.928,30.342 62.064,30.401 62.2,30.38C62.159,30.447 62.159,30.533 62.2,30.6C62.258,30.683 62.366,30.716 62.46,30.68C62.453,30.654 62.453,30.626 62.46,30.6C62.45,30.533 62.482,30.465 62.54,30.43C62.596,30.417 62.654,30.417 62.71,30.43L63.2,30.43L63.2,31.69C63.214,31.746 63.214,31.804 63.2,31.86C63.166,31.915 63.104,31.946 63.04,31.94C63.014,31.947 62.986,31.947 62.96,31.94C62.924,32.034 62.957,32.142 63.04,32.2C63.107,32.241 63.193,32.241 63.26,32.2C63.239,32.336 63.298,32.472 63.41,32.55C63.522,32.472 63.581,32.336 63.56,32.2C63.627,32.241 63.713,32.241 63.78,32.2C63.863,32.142 63.896,32.034 63.86,31.94C63.834,31.947 63.806,31.947 63.78,31.94C63.713,31.95 63.645,31.918 63.61,31.86C63.596,31.801 63.596,31.739 63.61,31.68L63.61,30.41L64.08,30.41C64.136,30.397 64.194,30.397 64.25,30.41C64.308,30.445 64.34,30.513 64.33,30.58C64.337,30.606 64.337,30.634 64.33,30.66C64.424,30.696 64.532,30.663 64.59,30.58C64.631,30.513 64.631,30.427 64.59,30.36C64.726,30.381 64.862,30.322 64.94,30.21C64.862,30.098 64.726,30.039 64.59,30.06L64.6,30.09Z" style="fill:white;fill-rule:nonzero;"/>
    <path d="M55.93,20.23L56.43,20.34L56.52,20.09L56.87,20.49L56.78,19.56L57.07,19.8L57.4,19.15L57.74,19.8L58.03,19.56L57.94,20.49L58.29,20.09L58.38,20.34L58.88,20.23L58.74,20.77L58.96,20.84L58.16,21.59L58.31,21.83L57.54,21.77C57.492,21.956 57.472,22.148 57.48,22.34C57.477,22.474 57.551,22.599 57.67,22.66L57.15,22.66C57.268,22.597 57.341,22.473 57.34,22.34C57.354,22.148 57.334,21.955 57.28,21.77L56.51,21.83L56.66,21.59L55.86,20.84L56.08,20.77L55.94,20.23L55.93,20.23ZM60.29,19.82L60.81,19.82L60.81,19.38L61.19,19.38C61.47,19.395 61.75,19.365 62.02,19.29C62.3,19.17 63.02,18.91 63.38,19.43C63.72,18.92 64.46,19.18 64.74,19.29C65.01,19.365 65.29,19.395 65.57,19.38L65.95,19.38L65.95,19.82L66.47,19.82L66.47,22.74L63.94,22.74C63.94,22.74 63.75,22.33 63.38,22.33C63.01,22.33 62.83,22.74 62.83,22.74L60.29,22.74L60.29,19.82ZM67.78,20.23L68.28,20.34L68.37,20.09L68.72,20.49L68.63,19.56L68.92,19.8L69.26,19.15L69.59,19.8L69.87,19.56L69.78,20.49L70.13,20.09L70.22,20.34L70.72,20.23L70.58,20.77L70.8,20.84L70,21.59L70.15,21.83L69.38,21.77C69.326,21.955 69.306,22.148 69.32,22.34C69.319,22.473 69.392,22.597 69.51,22.66L69,22.66C69.119,22.599 69.193,22.474 69.19,22.34C69.199,22.148 69.178,21.956 69.13,21.77L68.36,21.83L68.51,21.59L67.71,20.84L67.93,20.77L67.79,20.23L67.78,20.23ZM54.51,23.44L72.17,23.44L72.17,18.44L54.51,18.44L54.51,23.44Z" style="fill:white;fill-rule:nonzero;"/>
    <path d="M63.16,19.56C62.96,19.26 62.48,19.37 62.11,19.56C61.809,19.65 61.494,19.687 61.18,19.67L61.06,19.67L61.06,19.86L63.19,19.86L63.19,19.6L63.16,19.56Z" style="fill:white;fill-rule:nonzero;"/>
    <path d="M61.06,22L61.71,22C61.833,21.97 61.953,21.929 62.07,21.88C62.421,21.709 62.809,21.627 63.2,21.64L63.2,19.82L61.06,19.82L61.06,22Z" style="fill:white;fill-rule:nonzero;"/>
    <path d="M65.64,19.63L65.58,19.63C65.263,19.648 64.945,19.611 64.64,19.52C64.27,19.37 63.79,19.26 63.59,19.52L63.59,19.74L65.72,19.74L65.72,19.55L65.64,19.63Z" style="fill:white;fill-rule:nonzero;"/>
    <path d="M63.56,21.67C63.944,21.657 64.325,21.74 64.67,21.91C64.778,21.948 64.888,21.978 65,22L65.65,22L65.65,19.82L63.56,19.82L63.56,21.67Z" style="fill:white;fill-rule:nonzero;"/>
</svg>
